<svg xmlns="http://www.w3.org/2000/svg" viewBox="0 0 800 500" width="800" height="500" role="img">
<style>
  .bg{fill:#FFFFFF}
  .brd{fill:none;stroke:#E6E6E6;stroke-width:2}
  .ttl{font:700 26px system-ui,-apple-system,Segoe UI,Roboto,sans-serif;fill:#141414}
  .sub{font:400 15px system-ui,-apple-system,Segoe UI,Roboto,sans-serif;fill:#8A8A8A}
  .hdr{font:700 14px system-ui,-apple-system,Segoe UI,Roboto,sans-serif;fill:#FFFFFF}
  .cel{font:400 14px system-ui,-apple-system,Segoe UI,Roboto,sans-serif;fill:#333333}
  .celb{font:700 14px system-ui,-apple-system,Segoe UI,Roboto,sans-serif;fill:#222222}
  .h1{font:700 22px system-ui,-apple-system,Segoe UI,Roboto,sans-serif;fill:#141414}
  .h2{font:700 15px system-ui,-apple-system,Segoe UI,Roboto,sans-serif;fill:#222222}
  .p{font:400 13px system-ui,-apple-system,Segoe UI,Roboto,sans-serif;fill:#9A9A9A}
  .tag{font:700 11px system-ui,-apple-system,Segoe UI,Roboto,sans-serif;fill:#FF6600;letter-spacing:1px}
</style>
<rect class="bg" width="800" height="500" rx="14"/>
<rect class="brd" x="1" y="1" width="798" height="498" rx="14"/>
<text class="tag" x="40" y="44">NODUS WORKSPACE · PLANILHA</text>
<text class="ttl" x="40" y="90">Control de Suscripciones</text><text class="sub" x="40" y="118">Indica el ciclo de cada suscripción. El coste mensual ya reparte las anuales entre 12 meses.</text><rect x="40" y="132" width="720" height="30" fill="#FF6600" rx="3"/><text class="hdr" x="48" y="152">Servicio</text><text class="hdr" x="208" y="152">Categoría</text><text class="hdr" x="328" y="152">Ciclo</text><text class="hdr" x="416" y="152">Importe</text><text class="hdr" x="512" y="152">Próximo cobro</text><text class="hdr" x="632" y="152">Resumen</text><rect x="40" y="162" width="720" height="30" fill="#FAFAFA"/><text class="cel" x="48" y="182">Ejemplo: streaming …</text><text class="cel" x="208" y="182">Ocio</text><text class="cel" x="328" y="182">Mensual</text><text class="cel" x="416" y="182">0</text><text class="cel" x="632" y="182">Mensual</text><text class="cel" x="632" y="212">Anual</text><rect x="40" y="222" width="720" height="30" fill="#FAFAFA"/><text class="celb" x="632" y="242">Coste mensual</text><text class="celb" x="632" y="272">Coste anual</text><rect x="40" y="282" width="720" height="30" fill="#FAFAFA"/><rect x="40" y="342" width="720" height="30" fill="#FAFAFA"/><rect x="40" y="132" width="720" height="270" fill="none" stroke="#EDEDED"/>
</svg>
