<svg xmlns="http://www.w3.org/2000/svg" viewBox="0 0 800 500" width="800" height="500" role="img">
<style>
  .bg{fill:#FFFFFF}
  .brd{fill:none;stroke:#E6E6E6;stroke-width:2}
  .ttl{font:700 26px system-ui,-apple-system,Segoe UI,Roboto,sans-serif;fill:#141414}
  .sub{font:400 15px system-ui,-apple-system,Segoe UI,Roboto,sans-serif;fill:#8A8A8A}
  .hdr{font:700 14px system-ui,-apple-system,Segoe UI,Roboto,sans-serif;fill:#FFFFFF}
  .cel{font:400 14px system-ui,-apple-system,Segoe UI,Roboto,sans-serif;fill:#333333}
  .celb{font:700 14px system-ui,-apple-system,Segoe UI,Roboto,sans-serif;fill:#222222}
  .h1{font:700 22px system-ui,-apple-system,Segoe UI,Roboto,sans-serif;fill:#141414}
  .h2{font:700 15px system-ui,-apple-system,Segoe UI,Roboto,sans-serif;fill:#222222}
  .p{font:400 13px system-ui,-apple-system,Segoe UI,Roboto,sans-serif;fill:#9A9A9A}
  .tag{font:700 11px system-ui,-apple-system,Segoe UI,Roboto,sans-serif;fill:#FF6600;letter-spacing:1px}
</style>
<rect class="bg" width="800" height="500" rx="14"/>
<rect class="brd" x="1" y="1" width="798" height="498" rx="14"/>
<text class="tag" x="40" y="44">NODUS WORKSPACE · PLANILHA</text>
<text class="ttl" x="40" y="90">Danh sách Mua sắm</text><text class="sub" x="40" y="118">Điền số lượng và giá để biết tổng trước khi ra quầy thu ngân.</text><rect x="40" y="132" width="720" height="30" fill="#FF6600" rx="3"/><text class="hdr" x="48" y="152">Mặt hàng</text><text class="hdr" x="268.2352941176471" y="152">Danh mục</text><text class="hdr" x="395.29411764705884" y="152">SL</text><text class="hdr" x="463.05882352941177" y="152">Đơn giá</text><text class="hdr" x="573.1764705882354" y="152">Tổng</text><text class="hdr" x="674.8235294117648" y="152">Đã mua</text><rect x="40" y="162" width="720" height="30" fill="#FAFAFA"/><text class="cel" x="48" y="182">Ví dụ: gạo 5 kg</text><text class="cel" x="395.29411764705884" y="182">1</text><text class="cel" x="463.05882352941177" y="182">0</text><text class="cel" x="573.1764705882354" y="182">—</text><text class="cel" x="573.1764705882354" y="212">—</text><rect x="40" y="222" width="720" height="30" fill="#FAFAFA"/><text class="cel" x="573.1764705882354" y="242">—</text><text class="cel" x="573.1764705882354" y="272">—</text><rect x="40" y="282" width="720" height="30" fill="#FAFAFA"/><text class="cel" x="573.1764705882354" y="302">—</text><text class="cel" x="573.1764705882354" y="332">—</text><rect x="40" y="342" width="720" height="30" fill="#FAFAFA"/><text class="cel" x="573.1764705882354" y="362">—</text><text class="cel" x="573.1764705882354" y="392">—</text><rect x="40" y="132" width="720" height="270" fill="none" stroke="#EDEDED"/>
</svg>
